
<svg xmlns="http://www.w3.org/2000/svg" viewBox="0 0 24 24"><path fill="none" stroke="#7B4646" stroke-linecap="round" stroke-linejoin="round" d="M1.5 2.5h1.4c.7 0 1.3.4 1.4 1.1l3.2 10.9-1.8 2.2c-.2.2-.2.4-.2.7h0c0 .6.5 1.1 1.1 1.1h13.9"/><path fill="none" stroke="#7B4646" stroke-linecap="round" stroke-linejoin="round" d="M7.5 14.5h10c.6 0 1.1-.3 1.4-.9l3.5-7.4c.1-.1.1-.3.1-.5v-.1c0-.6-.5-1.1-1.1-1.1h-3M8.6 4.5h-4"/><circle cx="7" cy="22" r="1.5" fill="none" stroke="#7B4646" stroke-linecap="round" stroke-linejoin="round"/><circle cx="19" cy="22" r="1.5" fill="none" stroke="#7B4646" stroke-linecap="round" stroke-linejoin="round"/><circle cx="13.5" cy="5.5" r="5" fill="none" stroke="#7B4646" stroke-linecap="round" stroke-linejoin="round"/><path fill="none" stroke="#7B4646" stroke-linecap="round" stroke-linejoin="round" d="m11 6 1.5 1.5L16 4"/></svg>