<svg>

    <symbol id="top-phone" xmlns="http://www.w3.org/2000/svg" width="14" height="14" viewBox="0 0 14 14" >
        <path d="M10.5 5.6875H9.625C9.62465 5.33951 9.48626 5.00587 9.24019 4.75981C8.99413 4.51374 8.66049 4.37535 8.3125 4.375V3.5C8.89245 3.50069 9.44844 3.73139 9.85853 4.14147C10.2686 4.55156 10.4993 5.10755 10.5 5.6875Z" />
        <path d="M12.25 5.6875H11.375C11.3741 4.87556 11.0511 4.09714 10.477 3.52301C9.90286 2.94888 9.12444 2.62593 8.3125 2.625V1.75C9.35643 1.75116 10.3573 2.16637 11.0955 2.90455C11.8336 3.64272 12.2488 4.64357 12.25 5.6875Z" />
        <path d="M8.89576 9.39838L9.87576 8.41838C10.0069 8.28717 10.1737 8.19733 10.3555 8.16001C10.5372 8.12268 10.7259 8.1395 10.8982 8.20838L12.0917 8.68613C12.2676 8.75651 12.4184 8.87799 12.5246 9.03489C12.6308 9.19179 12.6876 9.37691 12.6876 9.56638V11.7368C12.6879 11.8658 12.6619 11.9935 12.6111 12.1121C12.5603 12.2307 12.4859 12.3377 12.3924 12.4265C12.2988 12.5154 12.1881 12.5842 12.0671 12.6288C11.946 12.6733 11.8171 12.6927 11.6883 12.6858C3.32244 12.1651 1.63282 5.07938 1.31913 2.366C1.30394 2.23335 1.317 2.09899 1.35746 1.97175C1.39792 1.8445 1.46486 1.72727 1.55388 1.62776C1.6429 1.52824 1.75198 1.4487 1.87394 1.39436C1.9959 1.34003 2.12799 1.31213 2.26151 1.3125H4.39344C4.58291 1.3125 4.76804 1.36926 4.92494 1.47547C5.08183 1.58168 5.20331 1.73247 5.27369 1.90838L5.75101 3.10188C5.81989 3.27416 5.83671 3.46286 5.79938 3.6446C5.76205 3.82634 5.67222 3.99314 5.54101 4.12432L4.56101 5.10432C4.56101 5.10432 5.10438 8.92457 8.89576 9.39838Z" />
    </symbol>

    <symbol id="map-marker" xmlns="http://www.w3.org/2000/svg" width="10" height="15" viewBox="0 0 10 15" fill="none">
        <path d="M5 14.0637C5 14.0637 10 9.20321 10 5.51554C10 4.15528 9.47322 2.85073 8.53553 1.88887C7.59785 0.927021 6.32608 0.386658 5 0.386658C3.67392 0.386658 2.40215 0.927021 1.46447 1.88887C0.526784 2.85073 1.97602e-08 4.15528 0 5.51554C0 9.20321 5 14.0637 5 14.0637ZM5 8.07999C4.33696 8.07999 3.70107 7.8098 3.23223 7.32888C2.76339 6.84795 2.5 6.19568 2.5 5.51554C2.5 4.83541 2.76339 4.18313 3.23223 3.70221C3.70107 3.22128 4.33696 2.9511 5 2.9511C5.66304 2.9511 6.29893 3.22128 6.76777 3.70221C7.23661 4.18313 7.5 4.83541 7.5 5.51554C7.5 6.19568 7.23661 6.84795 6.76777 7.32888C6.29893 7.8098 5.66304 8.07999 5 8.07999Z" fill="white"/>
    </symbol>

    <symbol id="clock" xmlns="http://www.w3.org/2000/svg" width="15" height="15" viewBox="0 0 15 15">
        <path d="M7.49375 1.25C4.04375 1.25 1.25 4.05 1.25 7.5C1.25 10.95 4.04375 13.75 7.49375 13.75C10.95 13.75 13.75 10.95 13.75 7.5C13.75 4.05 10.95 1.25 7.49375 1.25ZM10 10C9.94218 10.0579 9.8735 10.1039 9.79789 10.1353C9.72228 10.1666 9.64123 10.1828 9.55937 10.1828C9.47752 10.1828 9.39647 10.1666 9.32086 10.1353C9.24525 10.1039 9.17657 10.0579 9.11875 10L7.0625 7.94375C7.00345 7.88587 6.95646 7.81684 6.92428 7.74067C6.89209 7.66449 6.87534 7.58269 6.875 7.5V5C6.875 4.65625 7.15625 4.375 7.5 4.375C7.84375 4.375 8.125 4.65625 8.125 5V7.24375L10 9.11875C10.2437 9.3625 10.2437 9.75625 10 10Z" />
    </symbol>

    <symbol id="toggler" xmlns="http://www.w3.org/2000/svg" width="800px" height="800px" viewBox="0 0 24 24" fill="none">
        <path d="M4 18L20 18" stroke="#424242" stroke-width="2" stroke-linecap="round"/>
        <path d="M4 12L20 12" stroke="#424242" stroke-width="2" stroke-linecap="round"/>
        <path d="M4 6L20 6" stroke="#424242" stroke-width="2" stroke-linecap="round"/>
    </symbol>

    <symbol id="search" xmlns="http://www.w3.org/2000/svg" width="13" height="13" viewBox="0 0 13 13" fill="none">
        <path d="M12 12.2479L9.40284 9.57906M10.8421 6.01226C10.8421 7.35105 10.3236 8.63501 9.40076 9.58168C8.47789 10.5283 7.2262 11.0602 5.92105 11.0602C4.61591 11.0602 3.36422 10.5283 2.44134 9.58168C1.51847 8.63501 1 7.35105 1 6.01226C1 4.67348 1.51847 3.38952 2.44134 2.44285C3.36422 1.49619 4.61591 0.964355 5.92105 0.964355C7.2262 0.964355 8.47789 1.49619 9.40076 2.44285C10.3236 3.38952 10.8421 4.67348 10.8421 6.01226Z" stroke="#A37C7C" stroke-width="1.10883" stroke-linecap="round"/>
    </symbol>

    <symbol id="enter" xmlns="http://www.w3.org/2000/svg" width="16" height="15" viewBox="0 0 16 15" fill="none">
        <path d="M3.3125 13.125C3.3125 13.125 2.375 13.125 2.375 12.1875C2.375 11.25 3.3125 8.4375 8 8.4375C12.6875 8.4375 13.625 11.25 13.625 12.1875C13.625 13.125 12.6875 13.125 12.6875 13.125H3.3125ZM8 7.5C8.74592 7.5 9.46129 7.20368 9.98874 6.67624C10.5162 6.14879 10.8125 5.43342 10.8125 4.6875C10.8125 3.94158 10.5162 3.22621 9.98874 2.69876C9.46129 2.17132 8.74592 1.875 8 1.875C7.25408 1.875 6.53871 2.17132 6.01126 2.69876C5.48382 3.22621 5.1875 3.94158 5.1875 4.6875C5.1875 5.43342 5.48382 6.14879 6.01126 6.67624C6.53871 7.20368 7.25408 7.5 8 7.5Z" fill="#976464"/>
    </symbol>

    <symbol id="fav" xmlns="http://www.w3.org/2000/svg" width="14" height="14" viewBox="0 0 14 14">
        <path d="M12.8334 2.97111C12.3123 1.90167 10.8111 1.02667 9.06503 1.53611C8.23065 1.77712 7.50267 2.29398 7.00003 3.00223C6.49739 2.29398 5.76941 1.77712 4.93503 1.53611C3.18503 1.03445 1.68781 1.90167 1.1667 2.97111C0.435585 4.46834 0.738919 6.15223 2.06892 7.97612C3.11114 9.40334 4.60059 10.85 6.76281 12.53C6.83114 12.5833 6.91532 12.6122 7.00197 12.6122C7.08863 12.6122 7.17281 12.5833 7.24114 12.53C9.39947 10.8539 10.8928 9.41889 11.935 7.97612C13.2611 6.15223 13.5645 4.46834 12.8334 2.97111Z" />
    </symbol>

    <symbol id="cart" xmlns="http://www.w3.org/2000/svg" width="11" height="11" viewBox="0 0 11 11" >
        <g clip-path="url(#clip0_137_114)">
            <path d="M5.08127 0.555126L3.2142 3.66666H7.7858L5.918 0.555126L6.54867 0.178192L8.64087 3.66666H10.4845C10.769 3.66666 11 3.89766 11 4.18219V4.50413C11 6.66288 10.4974 8.79198 9.53187 10.7228C9.49018 10.8061 9.42612 10.8762 9.34685 10.9252C9.26758 10.9741 9.17624 11 9.08307 11H1.91693C1.8237 10.9999 1.73234 10.9738 1.65308 10.9247C1.57382 10.8756 1.50978 10.8055 1.46813 10.7221C0.502632 8.79125 -1.72126e-05 6.66215 4.42075e-10 4.50339L4.42076e-10 4.18219C4.42076e-10 3.89766 0.231 3.66666 0.515533 3.66666H2.35913L4.45133 0.178192L5.08053 0.555126H5.08127Z" />
        </g>
        <defs>
            <clipPath id="clip0_137_114">
            <rect width="11" height="11" />
            </clipPath>
        </defs>
    </symbol>

    <symbol id="person" xmlns="http://www.w3.org/2000/svg" width="16" height="15" viewBox="0 0 16 15">
  <path d="M3.3125 13.125C3.3125 13.125 2.375 13.125 2.375 12.1875C2.375 11.25 3.3125 8.4375 8 8.4375C12.6875 8.4375 13.625 11.25 13.625 12.1875C13.625 13.125 12.6875 13.125 12.6875 13.125H3.3125ZM8 7.5C8.74592 7.5 9.46129 7.20368 9.98874 6.67624C10.5162 6.14879 10.8125 5.43342 10.8125 4.6875C10.8125 3.94158 10.5162 3.22621 9.98874 2.69876C9.46129 2.17132 8.74592 1.875 8 1.875C7.25408 1.875 6.53871 2.17132 6.01126 2.69876C5.48382 3.22621 5.1875 3.94158 5.1875 4.6875C5.1875 5.43342 5.48382 6.14879 6.01126 6.67624C6.53871 7.20368 7.25408 7.5 8 7.5Z" />
</symbol>

    <symbol id="arrow-right" xmlns="http://www.w3.org/2000/svg" width="17" height="8" viewBox="0 0 17 8" fill="none">
        <path d="M16.3536 4.35355C16.5488 4.15829 16.5488 3.84171 16.3536 3.64645L13.1716 0.464466C12.9763 0.269204 12.6597 0.269204 12.4645 0.464466C12.2692 0.659728 12.2692 0.976311 12.4645 1.17157L15.2929 4L12.4645 6.82843C12.2692 7.02369 12.2692 7.34027 12.4645 7.53553C12.6597 7.7308 12.9763 7.7308 13.1716 7.53553L16.3536 4.35355ZM0 4.5L16 4.5V3.5L0 3.5L0 4.5Z" fill="#424242"/>
    </symbol>

    <symbol id="email" height="14px" width="15px" xmlns="http://www.w3.org/2000/svg" viewBox="0 0 512 512">
        <path d="M510.746,110.361c-2.128-10.754-6.926-20.918-13.926-29.463c-1.422-1.794-2.909-3.39-4.535-5.009
        c-12.454-12.52-29.778-19.701-47.531-19.701H67.244c-17.951,0-34.834,7-47.539,19.708c-1.608,1.604-3.099,3.216-4.575,5.067
        c-6.97,8.509-11.747,18.659-13.824,29.428C0.438,114.62,0,119.002,0,123.435v265.137c0,9.224,1.874,18.206,5.589,26.745
        c3.215,7.583,8.093,14.772,14.112,20.788c1.516,1.509,3.022,2.901,4.63,4.258c12.034,9.966,27.272,15.45,42.913,15.45h377.51
        c15.742,0,30.965-5.505,42.967-15.56c1.604-1.298,3.091-2.661,4.578-4.148c5.818-5.812,10.442-12.49,13.766-19.854l0.438-1.05
        c3.646-8.377,5.497-17.33,5.497-26.628V123.435C512,119.06,511.578,114.649,510.746,110.361z M34.823,99.104
        c0.951-1.392,2.165-2.821,3.714-4.382c7.689-7.685,17.886-11.914,28.706-11.914h377.51c10.915,0,21.115,4.236,28.719,11.929
        c1.313,1.327,2.567,2.8,3.661,4.272l2.887,3.88l-201.5,175.616c-6.212,5.446-14.21,8.443-22.523,8.443
        c-8.231,0-16.222-2.99-22.508-8.436L32.19,102.939L34.823,99.104z M26.755,390.913c-0.109-0.722-0.134-1.524-0.134-2.341V128.925
        l156.37,136.411L28.199,400.297L26.755,390.913z M464.899,423.84c-6.052,3.492-13.022,5.344-20.145,5.344H67.244
        c-7.127,0-14.094-1.852-20.142-5.344l-6.328-3.668l159.936-139.379l17.528,15.246c10.514,9.128,23.922,14.16,37.761,14.16
        c13.89,0,27.32-5.032,37.827-14.16l17.521-15.253L471.228,420.18L464.899,423.84z M485.372,388.572
        c0,0.803-0.015,1.597-0.116,2.304l-1.386,9.472L329.012,265.409l156.36-136.418V388.572z"/>
    </symbol>

    <symbol id="instagram" width="15px" height="15px" viewBox="0 0 24 24" xmlns="http://www.w3.org/2000/svg">
        <path fill-rule="evenodd" clip-rule="evenodd" d="M12 18C15.3137 18 18 15.3137 18 12C18 8.68629 15.3137 6 12 6C8.68629 6 6 8.68629 6 12C6 15.3137 8.68629 18 12 18ZM12 16C14.2091 16 16 14.2091 16 12C16 9.79086 14.2091 8 12 8C9.79086 8 8 9.79086 8 12C8 14.2091 9.79086 16 12 16Z" />
        <path d="M18 5C17.4477 5 17 5.44772 17 6C17 6.55228 17.4477 7 18 7C18.5523 7 19 6.55228 19 6C19 5.44772 18.5523 5 18 5Z" />
        <path fill-rule="evenodd" clip-rule="evenodd" d="M1.65396 4.27606C1 5.55953 1 7.23969 1 10.6V13.4C1 16.7603 1 18.4405 1.65396 19.7239C2.2292 20.8529 3.14708 21.7708 4.27606 22.346C5.55953 23 7.23969 23 10.6 23H13.4C16.7603 23 18.4405 23 19.7239 22.346C20.8529 21.7708 21.7708 20.8529 22.346 19.7239C23 18.4405 23 16.7603 23 13.4V10.6C23 7.23969 23 5.55953 22.346 4.27606C21.7708 3.14708 20.8529 2.2292 19.7239 1.65396C18.4405 1 16.7603 1 13.4 1H10.6C7.23969 1 5.55953 1 4.27606 1.65396C3.14708 2.2292 2.2292 3.14708 1.65396 4.27606ZM13.4 3H10.6C8.88684 3 7.72225 3.00156 6.82208 3.0751C5.94524 3.14674 5.49684 3.27659 5.18404 3.43597C4.43139 3.81947 3.81947 4.43139 3.43597 5.18404C3.27659 5.49684 3.14674 5.94524 3.0751 6.82208C3.00156 7.72225 3 8.88684 3 10.6V13.4C3 15.1132 3.00156 16.2777 3.0751 17.1779C3.14674 18.0548 3.27659 18.5032 3.43597 18.816C3.81947 19.5686 4.43139 20.1805 5.18404 20.564C5.49684 20.7234 5.94524 20.8533 6.82208 20.9249C7.72225 20.9984 8.88684 21 10.6 21H13.4C15.1132 21 16.2777 20.9984 17.1779 20.9249C18.0548 20.8533 18.5032 20.7234 18.816 20.564C19.5686 20.1805 20.1805 19.5686 20.564 18.816C20.7234 18.5032 20.8533 18.0548 20.9249 17.1779C20.9984 16.2777 21 15.1132 21 13.4V10.6C21 8.88684 20.9984 7.72225 20.9249 6.82208C20.8533 5.94524 20.7234 5.49684 20.564 5.18404C20.1805 4.43139 19.5686 3.81947 18.816 3.43597C18.5032 3.27659 18.0548 3.14674 17.1779 3.0751C16.2777 3.00156 15.1132 3 13.4 3Z"/>
    </symbol>

</svg>


