<svg>

    <symbol id="top-phone" xmlns="http://www.w3.org/2000/svg" width="14" height="14" viewBox="0 0 14 14" fill="none">
        <path d="M10.5 5.6875H9.625C9.62465 5.33951 9.48626 5.00587 9.24019 4.75981C8.99413 4.51374 8.66049 4.37535 8.3125 4.375V3.5C8.89245 3.50069 9.44844 3.73139 9.85853 4.14147C10.2686 4.55156 10.4993 5.10755 10.5 5.6875Z" fill="white"/>
        <path d="M12.25 5.6875H11.375C11.3741 4.87556 11.0511 4.09714 10.477 3.52301C9.90286 2.94888 9.12444 2.62593 8.3125 2.625V1.75C9.35643 1.75116 10.3573 2.16637 11.0955 2.90455C11.8336 3.64272 12.2488 4.64357 12.25 5.6875Z" fill="white"/>
        <path d="M8.89576 9.39838L9.87576 8.41838C10.0069 8.28717 10.1737 8.19733 10.3555 8.16001C10.5372 8.12268 10.7259 8.1395 10.8982 8.20838L12.0917 8.68613C12.2676 8.75651 12.4184 8.87799 12.5246 9.03489C12.6308 9.19179 12.6876 9.37691 12.6876 9.56638V11.7368C12.6879 11.8658 12.6619 11.9935 12.6111 12.1121C12.5603 12.2307 12.4859 12.3377 12.3924 12.4265C12.2988 12.5154 12.1881 12.5842 12.0671 12.6288C11.946 12.6733 11.8171 12.6927 11.6883 12.6858C3.32244 12.1651 1.63282 5.07938 1.31913 2.366C1.30394 2.23335 1.317 2.09899 1.35746 1.97175C1.39792 1.8445 1.46486 1.72727 1.55388 1.62776C1.6429 1.52824 1.75198 1.4487 1.87394 1.39436C1.9959 1.34003 2.12799 1.31213 2.26151 1.3125H4.39344C4.58291 1.3125 4.76804 1.36926 4.92494 1.47547C5.08183 1.58168 5.20331 1.73247 5.27369 1.90838L5.75101 3.10188C5.81989 3.27416 5.83671 3.46286 5.79938 3.6446C5.76205 3.82634 5.67222 3.99314 5.54101 4.12432L4.56101 5.10432C4.56101 5.10432 5.10438 8.92457 8.89576 9.39838Z" fill="white"/>
    </symbol>

    <symbol id="map-marker" xmlns="http://www.w3.org/2000/svg" width="10" height="15" viewBox="0 0 10 15" fill="none">
        <path d="M5 14.0637C5 14.0637 10 9.20321 10 5.51554C10 4.15528 9.47322 2.85073 8.53553 1.88887C7.59785 0.927021 6.32608 0.386658 5 0.386658C3.67392 0.386658 2.40215 0.927021 1.46447 1.88887C0.526784 2.85073 1.97602e-08 4.15528 0 5.51554C0 9.20321 5 14.0637 5 14.0637ZM5 8.07999C4.33696 8.07999 3.70107 7.8098 3.23223 7.32888C2.76339 6.84795 2.5 6.19568 2.5 5.51554C2.5 4.83541 2.76339 4.18313 3.23223 3.70221C3.70107 3.22128 4.33696 2.9511 5 2.9511C5.66304 2.9511 6.29893 3.22128 6.76777 3.70221C7.23661 4.18313 7.5 4.83541 7.5 5.51554C7.5 6.19568 7.23661 6.84795 6.76777 7.32888C6.29893 7.8098 5.66304 8.07999 5 8.07999Z" fill="white"/>
    </symbol>

    <symbol id="clock" xmlns="http://www.w3.org/2000/svg" width="15" height="15" viewBox="0 0 15 15" fill="none">
        <path d="M7.49375 1.25C4.04375 1.25 1.25 4.05 1.25 7.5C1.25 10.95 4.04375 13.75 7.49375 13.75C10.95 13.75 13.75 10.95 13.75 7.5C13.75 4.05 10.95 1.25 7.49375 1.25ZM10 10C9.94218 10.0579 9.8735 10.1039 9.79789 10.1353C9.72228 10.1666 9.64123 10.1828 9.55937 10.1828C9.47752 10.1828 9.39647 10.1666 9.32086 10.1353C9.24525 10.1039 9.17657 10.0579 9.11875 10L7.0625 7.94375C7.00345 7.88587 6.95646 7.81684 6.92428 7.74067C6.89209 7.66449 6.87534 7.58269 6.875 7.5V5C6.875 4.65625 7.15625 4.375 7.5 4.375C7.84375 4.375 8.125 4.65625 8.125 5V7.24375L10 9.11875C10.2437 9.3625 10.2437 9.75625 10 10Z" fill="white"/>
    </symbol>

    <symbol id="toggler" xmlns="http://www.w3.org/2000/svg" width="800px" height="800px" viewBox="0 0 24 24" fill="none">
        <path d="M4 18L20 18" stroke="#424242" stroke-width="2" stroke-linecap="round"/>
        <path d="M4 12L20 12" stroke="#424242" stroke-width="2" stroke-linecap="round"/>
        <path d="M4 6L20 6" stroke="#424242" stroke-width="2" stroke-linecap="round"/>
    </symbol>

    <symbol id="search" xmlns="http://www.w3.org/2000/svg" width="13" height="13" viewBox="0 0 13 13" fill="none">
        <path d="M12 12.2479L9.40284 9.57906M10.8421 6.01226C10.8421 7.35105 10.3236 8.63501 9.40076 9.58168C8.47789 10.5283 7.2262 11.0602 5.92105 11.0602C4.61591 11.0602 3.36422 10.5283 2.44134 9.58168C1.51847 8.63501 1 7.35105 1 6.01226C1 4.67348 1.51847 3.38952 2.44134 2.44285C3.36422 1.49619 4.61591 0.964355 5.92105 0.964355C7.2262 0.964355 8.47789 1.49619 9.40076 2.44285C10.3236 3.38952 10.8421 4.67348 10.8421 6.01226Z" stroke="#A37C7C" stroke-width="1.10883" stroke-linecap="round"/>
    </symbol>

    <symbol id="enter" xmlns="http://www.w3.org/2000/svg" width="16" height="15" viewBox="0 0 16 15" fill="none">
        <path d="M3.3125 13.125C3.3125 13.125 2.375 13.125 2.375 12.1875C2.375 11.25 3.3125 8.4375 8 8.4375C12.6875 8.4375 13.625 11.25 13.625 12.1875C13.625 13.125 12.6875 13.125 12.6875 13.125H3.3125ZM8 7.5C8.74592 7.5 9.46129 7.20368 9.98874 6.67624C10.5162 6.14879 10.8125 5.43342 10.8125 4.6875C10.8125 3.94158 10.5162 3.22621 9.98874 2.69876C9.46129 2.17132 8.74592 1.875 8 1.875C7.25408 1.875 6.53871 2.17132 6.01126 2.69876C5.48382 3.22621 5.1875 3.94158 5.1875 4.6875C5.1875 5.43342 5.48382 6.14879 6.01126 6.67624C6.53871 7.20368 7.25408 7.5 8 7.5Z" fill="#976464"/>
    </symbol>

    <symbol id="fav" xmlns="http://www.w3.org/2000/svg" width="14" height="14" viewBox="0 0 14 14" fill="none">
        <path d="M12.8334 2.97111C12.3123 1.90167 10.8111 1.02667 9.06503 1.53611C8.23065 1.77712 7.50267 2.29398 7.00003 3.00223C6.49739 2.29398 5.76941 1.77712 4.93503 1.53611C3.18503 1.03445 1.68781 1.90167 1.1667 2.97111C0.435585 4.46834 0.738919 6.15223 2.06892 7.97612C3.11114 9.40334 4.60059 10.85 6.76281 12.53C6.83114 12.5833 6.91532 12.6122 7.00197 12.6122C7.08863 12.6122 7.17281 12.5833 7.24114 12.53C9.39947 10.8539 10.8928 9.41889 11.935 7.97612C13.2611 6.15223 13.5645 4.46834 12.8334 2.97111Z" fill="#976464"/>
    </symbol>

    <symbol id="cart" xmlns="http://www.w3.org/2000/svg" width="11" height="11" viewBox="0 0 11 11" fill="none">
        <g clip-path="url(#clip0_137_114)">
            <path d="M5.08127 0.555126L3.2142 3.66666H7.7858L5.918 0.555126L6.54867 0.178192L8.64087 3.66666H10.4845C10.769 3.66666 11 3.89766 11 4.18219V4.50413C11 6.66288 10.4974 8.79198 9.53187 10.7228C9.49018 10.8061 9.42612 10.8762 9.34685 10.9252C9.26758 10.9741 9.17624 11 9.08307 11H1.91693C1.8237 10.9999 1.73234 10.9738 1.65308 10.9247C1.57382 10.8756 1.50978 10.8055 1.46813 10.7221C0.502632 8.79125 -1.72126e-05 6.66215 4.42075e-10 4.50339L4.42076e-10 4.18219C4.42076e-10 3.89766 0.231 3.66666 0.515533 3.66666H2.35913L4.45133 0.178192L5.08053 0.555126H5.08127Z" fill="#976464"/>
        </g>
        <defs>
            <clipPath id="clip0_137_114">
            <rect width="11" height="11" fill="white"/>
            </clipPath>
        </defs>
    </symbol>

    <symbol id="arrow-right" xmlns="http://www.w3.org/2000/svg" width="17" height="8" viewBox="0 0 17 8" fill="none">
        <path d="M16.3536 4.35355C16.5488 4.15829 16.5488 3.84171 16.3536 3.64645L13.1716 0.464466C12.9763 0.269204 12.6597 0.269204 12.4645 0.464466C12.2692 0.659728 12.2692 0.976311 12.4645 1.17157L15.2929 4L12.4645 6.82843C12.2692 7.02369 12.2692 7.34027 12.4645 7.53553C12.6597 7.7308 12.9763 7.7308 13.1716 7.53553L16.3536 4.35355ZM0 4.5L16 4.5V3.5L0 3.5L0 4.5Z" fill="#424242"/>
    </symbol>

</svg>
